<?xml version="1.0" standalone="no"?>
<!DOCTYPE svg PUBLIC "-//W3C//DTD SVG 20010904//EN"
 "http://www.w3.org/TR/2001/REC-SVG-20010904/DTD/svg10.dtd">
<svg version="1.0" xmlns="http://www.w3.org/2000/svg"
 width="491.000000pt" height="492.000000pt" viewBox="0 0 491.000000 492.000000"
 preserveAspectRatio="xMidYMid meet">

<g transform="translate(0.000000,492.000000) scale(0.100000,-0.100000)"
fill="#000000" stroke="none">
<path d="M2245 4914 c-721 -75 -1332 -416 -1756 -980 -556 -740 -646 -1744
-230 -2574 362 -723 1034 -1210 1846 -1337 155 -25 545 -25 700 0 659 103
1222 439 1616 963 556 740 646 1744 230 2574 -361 720 -1032 1208 -1836 1336
-96 15 -481 27 -570 18z m-305 -1689 l0 -185 185 0 185 0 0 -502 c0 -555 -2
-577 -62 -692 -42 -79 -155 -192 -234 -233 -115 -61 -136 -63 -586 -63 -255 0
-427 4 -460 11 -156 32 -304 150 -377 300 -47 98 -61 172 -61 322 l0 107 185
0 185 0 0 -97 c0 -119 11 -162 53 -210 55 -63 57 -63 467 -63 311 0 377 2 407
15 50 21 72 42 94 90 17 37 19 76 19 528 l0 487 -610 0 -610 0 0 185 0 185
610 0 610 0 0 -185z m1995 170 c207 -44 360 -183 433 -393 13 -40 16 -121 19
-564 l4 -518 -185 0 -186 0 0 -185 0 -185 -745 0 -745 0 0 745 0 745 185 0
185 0 0 185 0 185 483 0 c386 0 496 -3 552 -15z"/>
<path d="M2900 2480 l0 -560 560 0 561 0 -3 493 c-3 534 -2 520 -60 574 -56
53 -61 53 -578 53 l-480 0 0 -560z"/>
</g>
</svg>
